<svg width="133" height="135" viewBox="0 0 133 135" fill="none" xmlns="http://www.w3.org/2000/svg">
<path d="M67.3465 68.3977H4.14282V123.568H67.3465V68.3977Z" fill="#638BFF"/>
<path d="M132.185 68.3977H67.3206V123.568H132.185V68.3977Z" fill="#638BFF"/>
<path d="M67.3206 135H128.361C130.466 135 132.185 133.281 132.185 131.176V123.568H67.3206V135Z" fill="#001C6C"/>
<path d="M4.14307 123.568V131.176C4.14307 133.281 5.86172 135 7.96658 135H67.3468V123.568H4.14307Z" fill="#001C6C"/>
<path d="M22.4258 50.1113H4.13867V68.3985H22.4258V50.1113Z" fill="white"/>
<path d="M59.0156 50.1113L77.3028 68.3985H95.59L77.3028 50.1113H59.0156Z" fill="white"/>
<path d="M77.3125 50.1113L95.5997 68.3985H113.887L95.5997 50.1113H77.3125Z" fill="#638BFF"/>
<path d="M40.7131 50.1113L59.0196 68.3985H77.3068L59.0196 50.1113H40.7131Z" fill="#073B5B"/>
<path d="M95.6016 50.1113L113.889 68.3985H132.195L113.889 50.1113H95.6016Z" fill="white"/>
<path d="M113.883 50.1113L132.17 68.3985V52.2741C132.17 51.0769 131.205 50.1113 130.007 50.1113H113.883Z" fill="#638BFF"/>
<path d="M4.13867 50.1113L22.4258 68.3985H40.713L22.4258 50.1113H4.13867Z" fill="#638BFF"/>
<path d="M40.7208 50.1113H22.4336L40.7208 68.3985H59.0272L40.7208 50.1113Z" fill="white"/>
<path d="M123.364 0L105.676 4.63454L110.31 22.3424L126.145 18.2099C127.169 17.9396 127.786 16.8968 127.516 15.854L123.364 0Z" fill="white"/>
<path d="M70.2733 13.9036L57.2 36.2266L39.4922 40.8419L52.5655 18.5188L70.2733 13.9036Z" fill="white"/>
<path d="M52.5724 18.5186L39.4991 40.8416L21.8105 45.4762L34.8838 23.1531L52.5724 18.5186Z" fill="#638BFF"/>
<path d="M87.9572 9.26904L74.8839 31.5922L57.1953 36.2267L70.2686 13.9036L87.9572 9.26904Z" fill="#638BFF"/>
<path d="M34.8886 23.1533L21.8153 45.4764L4.10742 50.111L17.1807 27.7879L34.8886 23.1533Z" fill="white"/>
<path d="M17.1719 27.7883L4.09857 50.1114L0.0819538 34.7594C-0.265638 33.4656 0.526101 32.1332 1.81991 31.7856L17.1719 27.7883Z" fill="#638BFF"/>
<path d="M123.366 0L110.292 22.3424L92.6038 26.9576L105.677 4.63454L123.366 0Z" fill="#638BFF"/>
<path d="M87.962 9.26882L105.67 4.63428L92.5965 26.9574L74.8887 31.592L87.962 9.26882Z" fill="white"/>
<path d="M23.5078 62.2766H3.0578C1.9764 62.2766 1.10742 61.4076 1.10742 60.3262V39.8762C1.10742 38.1383 3.19297 37.2886 4.42885 38.5052L24.8788 58.9552C26.0954 60.191 25.2264 62.2766 23.5078 62.2766Z" fill="#001C6C"/>
<path d="M5.91795 42.6382C5.91795 43.623 5.1069 44.4341 4.12206 44.4341C3.13722 44.4341 2.32617 43.623 2.32617 42.6382C2.32617 41.6533 3.13722 40.8423 4.12206 40.8423C5.12621 40.8423 5.91795 41.6533 5.91795 42.6382Z" fill="white"/>
<path d="M5.91795 59.2446C5.91795 60.2294 5.1069 61.0405 4.12206 61.0405C3.13722 61.0405 2.32617 60.2294 2.32617 59.2446C2.32617 58.2598 3.13722 57.4487 4.12206 57.4487C5.12621 57.468 5.91795 58.2598 5.91795 59.2446Z" fill="white"/>
<path d="M22.7402 59.2446C22.7402 60.2294 21.9292 61.0405 20.9443 61.0405C19.9595 61.0405 19.1484 60.2294 19.1484 59.2446C19.1484 58.2598 19.9595 57.4487 20.9443 57.4487C21.9485 57.468 22.7402 58.2598 22.7402 59.2446Z" fill="white"/>
<path d="M67.4121 25.4319C44.278 25.4319 25.5466 44.1825 25.5466 67.2973C25.5466 90.4314 44.2973 109.163 67.4121 109.163C68.9763 109.163 70.5211 109.066 72.0273 108.892C87.8234 107.154 100.935 96.6301 106.458 82.321C108.254 77.6478 109.278 72.5884 109.278 67.278C109.278 44.1632 90.5462 25.4319 67.4121 25.4319Z" fill="#001C6C"/>
<path d="M67.6625 31.4573C47.8692 31.4573 31.822 47.5044 31.822 67.2978C31.822 87.0912 47.8692 103.138 67.6625 103.138C68.995 103.138 70.3274 103.061 71.6212 102.907L53.3148 84.6001C52.8899 84.3491 52.5809 83.8856 52.5809 83.3063V51.2507C52.5809 50.1307 53.7589 49.3968 54.7631 49.8989L86.8187 65.9268C87.1663 66.1006 87.3787 66.3902 87.4946 66.7184L101.089 80.1394C102.634 76.1421 103.503 71.8165 103.503 67.2785C103.503 47.5044 87.4559 31.4573 67.6625 31.4573Z" fill="#FF693B"/>
<path d="M86.8181 68.6497L54.7625 84.6776C54.2604 84.9286 53.739 84.8707 53.3142 84.6197L71.6207 102.926C85.1381 101.439 96.3576 92.4404 101.089 80.1782L87.494 66.7573C87.7644 67.4139 87.5712 68.2635 86.8181 68.6497Z" fill="#B22A00"/>
<path d="M86.8159 65.9461L54.7602 49.9183C53.7561 49.4162 52.5781 50.15 52.5781 51.27V83.3256C52.5781 83.8857 52.8871 84.3491 53.3119 84.6195C53.7368 84.8705 54.2582 84.9285 54.7602 84.6774L86.8159 68.6496C87.9166 68.0896 87.9166 66.5061 86.8159 65.9461Z" fill="white"/>
</svg>
