<svg width="114" height="152" viewBox="0 0 114 152" fill="none" xmlns="http://www.w3.org/2000/svg">
<path d="M81.2833 136.315H65.1627C63.4599 136.315 62.3299 135.464 62.7282 133.809C63.7337 129.629 66.8897 121.135 69.2503 115.117C69.897 113.468 71.0284 112.059 72.4869 111.055L89.1326 99.5918C90.5658 98.6048 92.5797 98.1986 93.6621 99.5611C95.1155 101.391 94.8883 103.898 93.4934 105.772C88.7429 112.156 77.3175 118.55 80.614 119.864C84.4524 121.394 94.4322 109.917 98.6544 104.943C100.706 102.527 100.502 100.271 99.6236 98.5855C98.8123 97.0283 98.4764 94.9941 99.6109 93.654L105.1 87.1693C106.626 85.367 109.326 85.1487 111.122 86.6826C112.409 87.7821 112.923 89.5392 112.432 91.1592L103.735 119.853C102.687 123.314 100.423 126.279 97.361 128.203L87.1358 134.628C85.3825 135.73 83.3539 136.315 81.2833 136.315Z" fill="#5A81F2"/>
<path d="M61.418 141.758C61.418 140.653 62.3134 139.758 63.418 139.758H81.6806C82.7852 139.758 83.6806 140.653 83.6806 141.758V150C83.6806 151.105 82.7852 152 81.6806 152H63.418C62.3134 152 61.418 151.105 61.418 150V141.758Z" fill="#FF693B"/>
<path d="M31.957 136.315H48.0775C49.7803 136.315 50.9103 135.464 50.5121 133.809C49.5065 129.629 46.3506 121.135 43.99 115.117C43.3433 113.468 42.2119 112.059 40.7533 111.055L24.1076 99.5918C22.6744 98.6048 20.6606 98.1986 19.5781 99.5611C18.1247 101.391 18.352 103.898 19.7468 105.772C24.4973 112.156 35.9227 118.55 32.6262 119.864C28.7878 121.394 18.808 109.917 14.5858 104.943C12.5345 102.527 12.7387 100.271 13.6166 98.5855C14.4279 97.0283 14.7639 94.9941 13.6294 93.654L8.13987 87.1693C6.61417 85.367 3.91391 85.1487 2.11853 86.6826C0.831455 87.7821 0.317142 89.5392 0.808144 91.1592L9.50477 119.853C10.5536 123.314 12.8174 126.279 15.8793 128.203L26.1045 134.628C27.8577 135.73 29.8863 136.315 31.957 136.315Z" fill="#5A81F2"/>
<path d="M27.9395 141.281C27.9395 140.176 28.8349 139.281 29.9395 139.281H48.2021C49.3067 139.281 50.2021 140.176 50.2021 141.281V149.523C50.2021 150.628 49.3067 151.523 48.2021 151.523H29.9395C28.8349 151.523 27.9395 150.628 27.9395 149.523V141.281Z" fill="#FF693B"/>
<path d="M55.3308 2.11491C56.1238 1.24743 57.4902 1.24743 58.2832 2.11491L66.2762 10.8591C66.8022 11.4344 67.6145 11.6518 68.3575 11.4159L79.6677 7.8262C80.7891 7.47026 81.9741 8.15458 82.2262 9.30383L84.7594 20.8482C84.9268 21.6115 85.5235 22.2073 86.2869 22.3737L97.8725 24.8992C99.0247 25.1503 99.7106 26.3387 99.3517 27.4619L95.7573 38.7122C95.519 39.4583 95.7381 40.2749 96.3179 40.8015L105.076 48.7543C105.95 49.5479 105.95 50.9219 105.076 51.7155L96.3179 59.6684C95.7381 60.1949 95.519 61.0115 95.7573 61.7576L99.3517 73.0079C99.7106 74.1312 99.0247 75.3195 97.8725 75.5707L86.2869 78.0962C85.5235 78.2626 84.9268 78.8584 84.7594 79.6216L82.2262 91.166C81.9741 92.3153 80.7891 92.9996 79.6677 92.6436L68.3575 89.0539C67.6145 88.8181 66.8022 89.0354 66.2762 89.6108L58.2832 98.3549C57.4902 99.2224 56.1238 99.2224 55.3308 98.3549L47.3378 89.6108C46.8118 89.0354 45.9995 88.8181 45.2565 89.0539L33.9463 92.6436C32.8249 92.9996 31.64 92.3153 31.3878 91.166L28.8546 79.6216C28.6872 78.8584 28.0905 78.2626 27.3271 78.0962L15.7415 75.5707C14.5893 75.3195 13.9035 74.1312 14.2623 73.0079L17.8567 61.7576C18.095 61.0115 17.8759 60.1949 17.2961 59.6684L8.53841 51.7155C7.66446 50.9219 7.66446 49.5479 8.53841 48.7543L17.2961 40.8015C17.8759 40.2749 18.095 39.4583 17.8567 38.7122L14.2623 27.4619C13.9035 26.3387 14.5893 25.1503 15.7415 24.8992L27.3271 22.3737C28.0905 22.2073 28.6872 21.6115 28.8546 20.8482L31.3878 9.30383C31.64 8.15458 32.8249 7.47026 33.9463 7.8262L45.2565 11.4159C45.9995 11.6518 46.8118 11.4344 47.3378 10.8591L55.3308 2.11491Z" fill="white"/>
<ellipse cx="56.8044" cy="50.235" rx="29.9394" ry="29.841" fill="#183A9B"/>
<path d="M51.3942 44.3719L40.2897 59.7442C39.8119 60.4055 40.2845 61.3297 41.1003 61.3297H72.4899C73.3079 61.3297 73.7799 60.4011 73.2977 59.7403L66.4379 50.3391C65.7815 49.4395 64.5168 49.2494 63.6248 49.9161L62.2167 50.9687C61.3416 51.6229 60.1035 51.4537 59.4359 50.5888L54.5988 44.3211C53.782 43.2628 52.177 43.2883 51.3942 44.3719Z" fill="white"/>
<ellipse cx="64.0919" cy="41.8184" rx="3.07071" ry="3.06061" fill="white"/>
</svg>
