<svg width="185" height="169" viewBox="0 0 185 169" fill="none" xmlns="http://www.w3.org/2000/svg">
<path d="M171.52 81.4888H14.0742V157.254H171.52V81.4888Z" fill="#638BFF"/>
<path d="M165.308 87.2341H20.7263V103.647H165.308V87.2341Z" fill="#183A9B"/>
<path d="M20.7263 127.131V131.838V136.528V141.235H72.9204V136.528V131.838V127.131H20.7263Z" fill="#183A9B"/>
<path d="M113.115 127.131V131.838V136.528V141.235H165.309V136.528V131.838V127.131H113.115Z" fill="#183A9B"/>
<path d="M171.505 81.4886H14.0585V75.4388C14.0585 72.0202 16.9071 69.2458 20.4173 69.2458H165.146C168.656 69.2458 171.505 72.0202 171.505 75.4388V81.4886Z" fill="#638BFF"/>
<path d="M77.9725 127.435L69.6288 120.096L61.2852 127.435H65.0711V164.485C65.0711 166.937 67.111 168.924 69.6288 168.924C72.1466 168.924 74.1866 166.937 74.1866 164.485V127.435H77.9725Z" fill="#B32A00"/>
<path d="M144.592 148.573L136.248 141.235L127.904 148.573H131.69V164.485C131.69 166.937 133.73 168.924 136.248 168.924C138.766 168.924 140.806 166.937 140.806 164.485V148.573H144.592Z" fill="#B32A00"/>
<path d="M58.4589 159.42L50.1152 152.082L41.7715 159.42H45.5574V164.485C45.5574 166.938 47.5974 168.924 50.1152 168.924C52.633 168.924 54.673 166.938 54.673 164.485V159.42H58.4589Z" fill="#B32A00"/>
<path d="M126.053 110.986L117.709 103.648L109.365 110.986H113.151V164.486C113.151 166.938 115.191 168.925 117.709 168.925C120.227 168.925 122.267 166.938 122.267 164.486V110.986H126.053Z" fill="#B32A00"/>
<path d="M94.846 37.0821H90.7109V18.5032C90.7109 17.3935 91.6298 16.4985 92.7693 16.4985C93.9087 16.4985 94.8277 17.3935 94.8277 18.5032V37.0821H94.846Z" fill="#F4A82D"/>
<path d="M83.1357 31.2648C82.6946 31.3722 82.2536 31.1216 82.1249 30.6921L80.379 24.3559C80.2687 23.9264 80.526 23.4968 80.9671 23.3715C81.4082 23.2641 81.8492 23.5147 81.9779 23.9442L83.7238 30.2804C83.8341 30.71 83.5768 31.1574 83.1357 31.2648Z" fill="#E0F3FF"/>
<path d="M66.432 40.6616C66.1195 40.9659 65.5866 40.9659 65.2741 40.6616L60.4958 36.0079C60.1834 35.7037 60.1834 35.1846 60.4958 34.8803C60.8082 34.576 61.3412 34.576 61.6536 34.8803L66.432 39.534C66.7444 39.8383 66.7444 40.3573 66.432 40.6616Z" fill="#E0F3FF"/>
<path d="M56.7826 56.932C56.6723 57.3616 56.2129 57.6122 55.7718 57.5048L49.2659 55.8044C48.8249 55.697 48.5675 55.2495 48.6778 54.82C48.7881 54.3904 49.2476 54.1398 49.6886 54.2472L56.1945 55.9476C56.6356 56.0729 56.8929 56.5025 56.7826 56.932Z" fill="#E0F3FF"/>
<path d="M56.7826 75.7255C56.8929 76.1551 56.6356 76.5847 56.1945 76.7099L49.6886 78.4103C49.2476 78.5177 48.8065 78.2671 48.6778 77.8375C48.5675 77.408 48.8249 76.9784 49.2659 76.8531L55.7718 75.1527C56.2129 75.0453 56.6723 75.2959 56.7826 75.7255Z" fill="#E0F3FF"/>
<path d="M66.432 91.9955C66.7444 92.2998 66.7444 92.8189 66.432 93.1232L61.6536 97.7768C61.3412 98.0811 60.8082 98.0811 60.4958 97.7768C60.1834 97.4726 60.1834 96.9535 60.4958 96.6492L65.2741 91.9955C65.5866 91.6913 66.1012 91.6913 66.432 91.9955Z" fill="#E0F3FF"/>
<path d="M119.144 91.9955C119.457 91.6913 119.99 91.6913 120.302 91.9955L125.081 96.6492C125.393 96.9535 125.393 97.4726 125.081 97.7768C124.768 98.0811 124.235 98.0811 123.923 97.7768L119.144 93.1232C118.832 92.8189 118.832 92.3177 119.144 91.9955Z" fill="#E0F3FF"/>
<path d="M128.789 75.7255C128.899 75.2959 129.359 75.0453 129.8 75.1527L136.306 76.8531C136.747 76.9605 137.004 77.408 136.894 77.8375C136.784 78.2671 136.324 78.5177 135.883 78.4103L129.377 76.7099C128.936 76.5847 128.679 76.1551 128.789 75.7255Z" fill="#E0F3FF"/>
<path d="M128.789 56.932C128.679 56.5025 128.936 56.0729 129.377 55.9476L135.883 54.2472C136.324 54.1398 136.765 54.3904 136.894 54.82C137.004 55.2495 136.747 55.6791 136.306 55.8044L129.8 57.5048C129.359 57.6122 128.899 57.3616 128.789 56.932Z" fill="#E0F3FF"/>
<path d="M119.144 40.6616C118.832 40.3573 118.832 39.8383 119.144 39.534L123.923 34.8803C124.235 34.576 124.768 34.576 125.081 34.8803C125.393 35.1846 125.393 35.7037 125.081 36.0079L120.302 40.6616C119.99 40.9659 119.457 40.9659 119.144 40.6616Z" fill="#E0F3FF"/>
<path d="M102.432 31.2648C101.991 31.1574 101.734 30.71 101.844 30.2804L103.59 23.9442C103.7 23.5147 104.159 23.2641 104.601 23.3715C105.042 23.4789 105.299 23.9264 105.189 24.3559L103.443 30.6921C103.314 31.1216 102.873 31.3901 102.432 31.2648Z" fill="#E0F3FF"/>
<path d="M79.5527 39.9815L75.9689 41.9862L66.4306 25.9131C65.8609 24.9465 66.1917 23.7115 67.1841 23.1566C68.1766 22.6018 69.4447 22.924 70.0144 23.8905L79.5527 39.9815Z" fill="#F4A82D"/>
<path d="M67.8128 49.9693L65.7544 53.4596L49.2508 44.1701C48.2584 43.6152 47.9276 42.3802 48.4973 41.4137C49.067 40.4472 50.3351 40.125 51.3275 40.6798L67.8128 49.9693Z" fill="#F4A82D"/>
<path d="M62.758 64.324V68.3512H43.6814C42.5419 68.3512 41.623 67.4563 41.623 66.3465C41.623 65.2368 42.5419 64.3419 43.6814 64.3419H62.758V64.324Z" fill="#F4A82D"/>
<path d="M65.7375 79.2161L67.7958 82.7063L51.2923 91.9958C50.2998 92.5506 49.0317 92.2285 48.462 91.2619C47.8923 90.2954 48.2231 89.0604 49.2155 88.5055L65.7375 79.2161Z" fill="#F4A82D"/>
<path d="M75.9689 90.6528L79.5527 92.6575L70.0144 108.731C69.4447 109.697 68.1766 110.019 67.1841 109.464C66.1917 108.91 65.8609 107.675 66.4306 106.708L75.9689 90.6528Z" fill="#F4A82D"/>
<path d="M106.016 92.6758L109.599 90.6711L119.138 106.744C119.707 107.711 119.377 108.946 118.384 109.501C117.392 110.056 116.124 109.733 115.554 108.767L106.016 92.6758Z" fill="#F4A82D"/>
<path d="M117.762 82.7063L119.82 79.2161L136.324 88.5055C137.316 89.0604 137.647 90.2954 137.077 91.2619C136.507 92.2285 135.239 92.5506 134.247 91.9958L117.762 82.7063Z" fill="#F4A82D"/>
<path d="M122.816 68.3512V64.324H141.893C143.032 64.324 143.951 65.2189 143.951 66.3287C143.951 67.4384 143.032 68.3333 141.893 68.3333H122.816V68.3512Z" fill="#F4A82D"/>
<path d="M119.842 53.4415L117.783 49.9512L134.287 40.6618C135.279 40.1069 136.547 40.4291 137.117 41.3956C137.687 42.3622 137.356 43.5972 136.364 44.1521L119.842 53.4415Z" fill="#F4A82D"/>
<path d="M109.599 42.0041L106.016 39.9995L115.554 23.9264C116.124 22.9599 117.392 22.6377 118.384 23.1925C119.377 23.7474 119.707 24.9824 119.138 25.949L109.599 42.0041Z" fill="#F4A82D"/>
<path d="M121.483 94.2879C137.337 78.8474 137.337 53.8133 121.483 38.3728C105.629 22.9322 79.924 22.9322 64.0699 38.3727C48.2157 53.8133 48.2157 78.8474 64.0699 94.2879C79.924 109.728 105.629 109.728 121.483 94.2879Z" fill="#E0F3FF"/>
<path d="M81.7682 51.1862L57.123 54.6765L74.9683 71.6087L70.7597 95.5036L92.7951 84.2273V29.4392L81.7682 51.1862Z" fill="#F4D34A"/>
<path d="M128.467 54.6765L103.822 51.1862L92.7948 29.4392V84.2273L114.83 95.5036L110.622 71.6087L128.467 54.6765Z" fill="#F4A82D"/>
<path d="M92.7935 168.924C85.3503 168.924 79.3223 163.054 79.3223 155.805V95.5215H92.7935V168.924Z" fill="#FF693B"/>
<path d="M114.827 95.5393H70.7559L92.7913 76.1191L114.827 95.5393Z" fill="#FF693B"/>
<path d="M92.7935 95.5037H79.3223V100.873H92.7935V168.924C100.237 168.924 106.265 163.054 106.265 155.805V95.5216H92.7935V95.5037Z" fill="#B32A00"/>
</svg>
