<svg width="48" height="48" viewBox="0 0 48 48" fill="none" xmlns="http://www.w3.org/2000/svg">
<rect x="0.769231" y="0.769231" width="46.4615" height="46.4615" rx="3.23077" stroke="white" stroke-width="1.53846"/>
<path d="M30.1981 20.77C30.1281 20.76 30.0581 20.76 29.9881 20.77C28.4381 20.72 27.2081 19.45 27.2081 17.89C27.2081 16.3 28.4981 15 30.0981 15C31.6881 15 32.9881 16.29 32.9881 17.89C32.9781 19.45 31.7481 20.72 30.1981 20.77Z" fill="white"/>
<path d="M33.4581 27.6999C32.3381 28.4499 30.7681 28.7299 29.3181 28.5399C29.6981 27.7199 29.8981 26.8099 29.9081 25.8499C29.9081 24.8499 29.6881 23.8999 29.2681 23.0699C30.7481 22.8699 32.3181 23.1499 33.4481 23.8999C35.0281 24.9399 35.0281 26.6499 33.4581 27.6999Z" fill="white"/>
<path d="M19.1081 20.77C19.1781 20.76 19.2481 20.76 19.3181 20.77C20.8681 20.72 22.0981 19.45 22.0981 17.89C22.0981 16.3 20.8081 15 19.2081 15C17.6181 15 16.3181 16.29 16.3181 17.89C16.3281 19.45 17.5581 20.72 19.1081 20.77Z" fill="white"/>
<path d="M19.2181 25.8501C19.2181 26.8201 19.4281 27.7401 19.8081 28.5701C18.3981 28.7201 16.9281 28.4201 15.8481 27.7101C14.2681 26.6601 14.2681 24.9501 15.8481 23.9001C16.9181 23.1801 18.4281 22.8901 19.8481 23.0501C19.4381 23.8901 19.2181 24.8401 19.2181 25.8501Z" fill="white"/>
<path d="M24.7881 28.87C24.7081 28.86 24.6181 28.86 24.5281 28.87C22.6881 28.81 21.2181 27.3 21.2181 25.44C21.2181 23.54 22.7481 22 24.6581 22C26.5581 22 28.0981 23.54 28.0981 25.44C28.0981 27.3 26.6381 28.81 24.7881 28.87Z" fill="white"/>
<path d="M21.5381 30.9401C20.0281 31.9501 20.0281 33.6101 21.5381 34.6101C23.2581 35.7601 26.0781 35.7601 27.7981 34.6101C29.3081 33.6001 29.3081 31.9401 27.7981 30.9401C26.0881 29.7901 23.2681 29.7901 21.5381 30.9401Z" fill="white"/>
</svg>
