<svg width="16" height="17" viewBox="0 0 16 17" fill="none" xmlns="http://www.w3.org/2000/svg">
<circle cx="8" cy="8.5" r="5.664" fill="white"/>
<path d="M16 8.5C16 4.08176 12.4182 0.5 8 0.5C3.58176 0.5 0 4.08176 0 8.5C0 12.9182 3.58176 16.5 8 16.5C12.4182 16.5 16 12.9182 16 8.5ZM11.5334 12.74H9.43264V8.0904H7.42208V12.74H5.3088V8.0904H4.1104V6.3704H5.3088V5.84816C5.3088 4.48528 6.33984 3.55536 7.8736 3.55536H9.43296V5.27504H8.22176C7.73184 5.27504 7.4224 5.54256 7.4224 5.97584V6.3704H11.5338V12.74H11.5334Z" fill="#1DBF73"/>
</svg>
