<svg width="48" height="48" viewBox="0 0 48 48" fill="none" xmlns="http://www.w3.org/2000/svg">
<rect x="0.769231" y="0.769231" width="46.4615" height="46.4615" rx="3.23077" stroke="white" stroke-width="1.53846"/>
<path opacity="0.43" d="M31.7304 27.6701L27.5804 31.8201C27.4204 31.9801 27.2704 32.2901 27.2304 32.5101L27.0004 34.1001C26.9204 34.6701 27.3204 35.0801 27.8904 34.9901L29.4804 34.7601C29.7004 34.7301 30.0104 34.5701 30.1704 34.4101L34.3204 30.2601C35.0304 29.5501 35.3704 28.7101 34.3204 27.6601C33.2804 26.6201 32.4504 26.9501 31.7304 27.6701Z" fill="white"/>
<path opacity="0.43" d="M31.1406 28.2598C31.4906 29.5198 32.4806 30.4997 33.7406 30.8597L31.1406 28.2598Z" fill="white"/>
<path d="M15.03 27.6299C15.03 27.6599 15.01 27.6999 15.01 27.7299C15.93 29.5699 17.43 31.0799 19.27 31.9899C19.3 31.9899 19.34 31.9699 19.37 31.9699C19.03 30.8099 18.77 29.6199 18.58 28.4299C17.38 28.2299 16.19 27.9699 15.03 27.6299Z" fill="white"/>
<path d="M32.0701 19.4304C31.1301 17.4604 29.5401 15.8704 27.5801 14.9404C27.9401 16.1304 28.2401 17.3504 28.4401 18.5704C29.6601 18.7704 30.8801 19.0604 32.0701 19.4304Z" fill="white"/>
<path d="M14.9297 19.4295C16.1297 19.0695 17.3497 18.7695 18.5697 18.5695C18.7697 17.3795 19.0197 16.1996 19.3597 15.0396C19.3297 15.0396 19.2897 15.0195 19.2597 15.0195C17.3797 15.9495 15.8497 17.5195 14.9297 19.4295Z" fill="white"/>
<path d="M26.8197 18.3602C26.5797 17.0602 26.2797 15.7602 25.8497 14.5002C25.8297 14.4302 25.8297 14.3703 25.8197 14.2903C25.0797 14.1103 24.2997 13.9902 23.4997 13.9902C22.6897 13.9902 21.9197 14.1003 21.1697 14.2903C21.1597 14.3603 21.1697 14.4202 21.1497 14.5002C20.7297 15.7602 20.4197 17.0602 20.1797 18.3602C22.3897 18.1202 24.6097 18.1202 26.8197 18.3602Z" fill="white"/>
<path d="M18.3602 20.1797C17.0502 20.4197 15.7602 20.7197 14.5002 21.1497C14.4302 21.1697 14.3702 21.1697 14.2902 21.1797C14.1102 21.9197 13.9902 22.6997 13.9902 23.4997C13.9902 24.3097 14.1002 25.0797 14.2902 25.8297C14.3602 25.8397 14.4202 25.8297 14.5002 25.8497C15.7602 26.2697 17.0502 26.5797 18.3602 26.8197C18.1202 24.6097 18.1202 22.3897 18.3602 20.1797Z" fill="white"/>
<path d="M32.6989 21.1797C32.6289 21.1797 32.5689 21.1697 32.4889 21.1497C31.2289 20.7297 29.9289 20.4197 28.6289 20.1797C28.8789 22.3897 28.8789 24.6097 28.6289 26.8097C29.9289 26.5697 31.2289 26.2697 32.4889 25.8397C32.5589 25.8197 32.6189 25.8297 32.6989 25.8197C32.8789 25.0697 32.9989 24.2997 32.9989 23.4897C32.9989 22.6997 32.8889 21.9297 32.6989 21.1797Z" fill="white"/>
<path d="M20.1797 28.6406C20.4197 29.9506 20.7197 31.2406 21.1497 32.5006C21.1697 32.5706 21.1597 32.6306 21.1697 32.7106C21.9197 32.8906 22.6897 33.0106 23.4997 33.0106C24.2997 33.0106 25.0797 32.9006 25.8197 32.7106C25.8297 32.6406 25.8297 32.5806 25.8497 32.5006C26.2697 31.2406 26.5797 29.9506 26.8197 28.6406C25.7197 28.7606 24.6097 28.8506 23.4997 28.8506C22.3897 28.8406 21.2797 28.7606 20.1797 28.6406Z" fill="white"/>
<path d="M19.9496 19.9496C19.6496 22.3096 19.6496 24.6896 19.9496 27.0596C22.3096 27.3596 24.6896 27.3596 27.0596 27.0596C27.3596 24.6996 27.3596 22.3196 27.0596 19.9496C24.6896 19.6496 22.3096 19.6496 19.9496 19.9496Z" fill="white"/>
</svg>
