<svg width="48" height="48" viewBox="0 0 48 48" fill="none" xmlns="http://www.w3.org/2000/svg">
<rect x="0.769231" y="0.769231" width="46.4615" height="46.4615" rx="3.23077" stroke="white" stroke-width="1.53846"/>
<path d="M34.6501 23.0302C34.2601 22.4702 33.5701 22.1502 32.7801 22.1502H28.6801C28.4101 22.1502 28.1601 22.0402 27.9901 21.8402C27.8101 21.6402 27.7401 21.3602 27.7801 21.0702L28.2901 17.7902C28.5101 16.8102 27.8601 15.7102 26.8801 15.3802C25.9701 15.0402 24.9001 15.5002 24.4701 16.1502L20.2501 22.4202L20.1301 22.6202V31.4602L20.2801 31.6102L23.4501 34.0602C23.8701 34.4802 24.8201 34.7102 25.4901 34.7102H29.3901C30.7301 34.7102 32.0801 33.7002 32.3801 32.4702L34.8401 24.9802C35.1001 24.2702 35.0301 23.5802 34.6501 23.0302Z" fill="white"/>
<path opacity="0.4" d="M18.2101 19.3799H17.1801C15.6301 19.3799 15.0001 19.9799 15.0001 21.4599V31.5199C15.0001 32.9999 15.6301 33.5999 17.1801 33.5999H18.2101C19.7601 33.5999 20.3901 32.9999 20.3901 31.5199V21.4599C20.3901 19.9799 19.7601 19.3799 18.2101 19.3799Z" fill="white"/>
</svg>
