<svg width="48" height="48" viewBox="0 0 48 48" fill="none" xmlns="http://www.w3.org/2000/svg">
<rect x="0.769231" y="0.769231" width="46.4615" height="46.4615" rx="3.23077" stroke="white" stroke-width="1.53846"/>
<path opacity="0.4" d="M25 35.0098C30.5228 35.0098 35 30.5326 35 25.0098C35 19.4869 30.5228 15.0098 25 15.0098C19.4772 15.0098 15 19.4869 15 25.0098C15 30.5326 19.4772 35.0098 25 35.0098Z" fill="white"/>
<path d="M25 19.9399C22.93 19.9399 21.25 21.6199 21.25 23.6899C21.25 25.7199 22.84 27.3699 24.95 27.4299C24.98 27.4299 25.02 27.4299 25.04 27.4299C25.06 27.4299 25.09 27.4299 25.11 27.4299C25.12 27.4299 25.13 27.4299 25.13 27.4299C27.15 27.3599 28.74 25.7199 28.75 23.6899C28.75 21.6199 27.07 19.9399 25 19.9399Z" fill="white"/>
<path d="M31.78 32.3602C30 34.0002 27.62 35.0102 25 35.0102C22.38 35.0102 20 34.0002 18.22 32.3602C18.46 31.4502 19.11 30.6202 20.06 29.9802C22.79 28.1602 27.23 28.1602 29.94 29.9802C30.9 30.6202 31.54 31.4502 31.78 32.3602Z" fill="white"/>
</svg>
