<svg width="185" height="148" viewBox="0 0 185 148" fill="none" xmlns="http://www.w3.org/2000/svg">
<path d="M157.365 25.4648H17.4168C13.7272 25.4648 10.6914 28.5839 10.6914 32.373V118.228C10.6914 122.04 13.7272 125.136 17.4168 125.136H157.365C161.078 125.136 164.09 122.017 164.09 118.228V32.373C164.113 28.5839 161.078 25.4648 157.365 25.4648Z" fill="#638BFF"/>
<path d="M166.86 4.62988H164.157V5.86916H166.86V4.62988ZM160.103 4.62988H157.4V5.86916H160.103V4.62988ZM153.346 4.62988H150.643V5.86916H153.346V4.62988ZM146.589 4.62988H143.886V5.86916H146.589V4.62988ZM139.831 4.62988H137.129V5.86916H139.831V4.62988ZM133.074 4.62988H130.371V5.86916H133.074V4.62988ZM126.317 4.62988H123.614V5.86916H126.317V4.62988ZM119.56 4.62988H116.857V5.86916H119.56V4.62988ZM112.803 4.62988H111.113V5.86916H112.803V4.62988ZM112.465 9.27717H111.113V11.7557H112.465V9.27717ZM112.465 15.4736H111.113V17.9521H112.465V15.4736ZM112.465 21.6699H111.113V24.1485H112.465V21.6699ZM112.465 27.8663H111.113V30.3449H112.465V27.8663ZM112.465 34.0627H111.113V36.5413H112.465V34.0627ZM112.465 40.2591H111.113V42.7376H112.465V40.2591ZM112.465 46.4555H111.113V48.934H112.465V46.4555ZM112.465 52.6519H111.113V55.1304H112.465V52.6519ZM112.465 58.8482H111.113V61.3268H112.465V58.8482ZM112.465 65.0446H111.113V67.5232H112.465V65.0446ZM112.465 71.241H111.113V73.7196H112.465V71.241ZM112.465 77.4374H111.113V79.916H112.465V77.4374ZM112.465 83.6338H111.113V86.1123H112.465V83.6338ZM112.465 89.8302H111.113V92.3087H112.465V89.8302ZM112.519 95.9894H111.127V96.0266V97.2287H112.478C112.505 97.2287 112.519 97.2287 112.519 97.2287V95.9894ZM119.276 95.9894H116.573V97.2287H119.276V95.9894ZM126.033 95.9894H123.33V97.2287H126.033V95.9894ZM132.79 95.9894H130.087V97.2287H132.79V95.9894ZM139.548 95.9894H136.845V97.2287H139.548V95.9894ZM146.305 95.9894H143.602V97.2287H146.305V95.9894ZM153.062 95.9894H150.359V97.2287H153.062V95.9894ZM159.819 95.9894H157.116V97.2287H159.819V95.9894ZM166.576 95.9894H163.874V97.2287H166.576V95.9894ZM173.334 95.9894H170.631V97.2287H173.334V95.9894ZM173.617 91.2925H172.266V93.7711H173.617V91.2925ZM173.617 85.0961H172.266V87.5747H173.617V85.0961ZM173.617 78.8997H172.266V81.3783H173.617V78.8997ZM173.617 72.7034H172.266V75.1819H173.617V72.7034ZM173.617 66.507H172.266V68.9855H173.617V66.507ZM173.617 60.3106H172.266V62.7891H173.617V60.3106ZM173.617 54.1142H172.266V56.5928H173.617V54.1142ZM173.617 47.9178H172.266V50.3964H173.617V47.9178ZM173.617 41.7214H172.266V44.2H173.617V41.7214ZM173.617 35.525H172.266V38.0036H173.617V35.525ZM173.617 29.3287H172.266V31.8072H173.617V29.3287ZM173.617 23.1323H172.266V25.6108H173.617V23.1323ZM173.617 16.9359H172.266V19.4144H173.617V16.9359ZM173.617 10.7395H172.266V13.2181H173.617V10.7395ZM173.617 4.62988H170.915V5.86916H172.266V7.02168H173.617V4.62988Z" fill="#80A1FF"/>
<path d="M155.729 32.1879C154.935 31.7258 154.025 31.4717 153.044 31.4717H21.7594C18.7704 31.4717 16.3418 33.9207 16.3418 36.9011V116.079C16.3418 117.835 17.2058 119.406 18.5135 120.399C19.4242 121.092 20.5451 121.508 21.7594 121.508H153.067C156.056 121.508 158.485 119.059 158.485 116.079V36.878C158.462 34.868 157.364 33.1121 155.729 32.1879Z" fill="#3163F3"/>
<path d="M85.708 106.489H23.1426V116.463H85.708V106.489Z" fill="#183A9B"/>
<path d="M85.7302 106.489H67.9297V116.464H85.7302V106.489Z" fill="#183A9B"/>
<path d="M62.6999 114.436H28.5586C26.9772 114.436 25.6797 113.159 25.6797 111.557C25.6797 109.976 26.9569 108.678 28.5586 108.678H62.6999C64.2813 108.678 65.5788 109.956 65.5788 111.557C65.5788 113.139 64.2813 114.436 62.6999 114.436Z" fill="white"/>
<path d="M80.4779 107.806H73.1387V115.146H80.4779V107.806Z" fill="#001C6C"/>
<path opacity="0.75" d="M153.044 31.4485H21.7594C18.7704 31.4485 16.3418 33.8975 16.3418 36.8779V116.056C16.3418 117.811 17.2058 119.383 18.5135 120.376L155.753 32.1647C154.935 31.7257 154.025 31.4485 153.044 31.4485Z" fill="#2448AE" fill-opacity="0.7"/>
<path d="M127.318 116.311H184.998V38.3779H127.318V116.311ZM134.658 98.9769V45.2103H177.719V55.9555V66.721V77.4864V88.2317V88.2519V98.9972V109.763H166.954H156.188H145.423H134.658V98.9769Z" fill="#E8EEFF"/>
<path d="M145.42 88.2318V88.2115V77.4663H156.185H166.951H177.716H166.951H156.185H145.42V66.7211H156.185V55.9556H166.951H177.716V45.2104H134.654V98.977H145.42V88.2318Z" fill="#001C6C"/>
<path d="M177.717 98.9771H166.951V109.743H177.717V98.9771Z" fill="#B22A00"/>
<path d="M166.953 98.9771H156.188V109.743H166.953V98.9771Z" fill="#FF693B"/>
<path d="M156.185 98.9771H145.42V109.743H156.185V98.9771Z" fill="#FF9A7B"/>
<path d="M145.42 98.9771H134.654V109.743H145.42V98.9771Z" fill="#B22A00"/>
<path d="M177.717 88.2319H166.951V98.9771H177.717V88.2319Z" fill="#FF693B"/>
<path d="M166.953 88.2324H156.188V98.9776H166.953V88.2324Z" fill="#FF9A7B"/>
<path d="M156.185 88.2322H145.42V98.9774H156.185V88.2322Z" fill="white"/>
<path d="M166.951 88.2115V88.2318H177.717V88.2115V77.4663H166.951V88.2115Z" fill="#FF9A7B"/>
<path d="M156.188 88.2315H166.953V88.2112V77.4661H156.188V88.2112V88.2315Z" fill="#FFBCA8"/>
<path d="M156.185 88.2115V77.4663H145.42V88.2115V88.2318H156.185V88.2115Z" fill="#FFE0D7"/>
<path d="M177.717 66.7207H166.951V77.4862H177.717V66.7207Z" fill="#FFBCA8"/>
<path d="M166.953 66.7207H156.188V77.4862H166.953V66.7207Z" fill="#FF693B"/>
<path d="M156.185 66.7207H145.42V77.4862H156.185V66.7207Z" fill="white"/>
<path d="M177.717 55.9558H166.951V66.7213H177.717V55.9558Z" fill="white"/>
<path d="M166.953 55.9556H156.188V66.721H166.953V55.9556Z" fill="#FFBCA8"/>
<path d="M25.4668 39.3545V71.1643H68.0016V39.3545H25.4668ZM64.1901 67.1501H28.8728V43.3687H64.1901V67.1501Z" fill="#E8EEFF"/>
<path d="M28.8867 67.1498H64.2039V43.3684H28.8867V67.1498ZM59.4801 56.9114V63.4599V64.352H58.5881H52.0396V63.4599H58.5881V56.9114H59.4801ZM57.027 50.0994V60.4796C57.027 61.2703 56.3782 61.9191 55.5875 61.9191H37.4829C36.6922 61.9191 36.0434 61.2703 36.0434 60.4796V50.0994C36.0434 49.3087 36.6922 48.6599 37.4829 48.6599H55.5875C56.3985 48.6599 57.027 49.3087 57.027 50.0994ZM41.0106 46.1865V47.0786H34.4621V53.627H33.57V47.0786V46.1865H34.4621H41.0106Z" fill="white"/>
<path d="M33.5918 47.0791V53.6275H34.4839V47.0791H41.0121V46.187H34.4839H33.5918V47.0791Z" fill="#001C6C"/>
<path d="M52.0645 63.4601V64.3522L58.5927 64.3319H59.4847V63.4398V56.9116H58.5927V63.4398L52.0645 63.4601Z" fill="#001C6C"/>
<path d="M63.3115 29.7682C63.3115 29.7682 52.342 28.3652 49.3231 34.832C46.3042 41.3121 44.9379 53.1499 41.919 53.7111C38.9001 54.2722 63.3245 58.7882 71.2751 40.7509C79.2257 22.7135 63.3115 29.7682 63.3115 29.7682Z" fill="#FF693B"/>
<path d="M75.1035 20.282C75.1035 20.282 80.777 15.6858 89.4693 10.141C98.0575 4.663 108.858 0 108.858 0C108.858 0 103.419 9.25918 96.0536 16.7146C89.5604 23.2882 83.0672 29.7683 83.0672 29.7683L75.1035 20.282Z" fill="#272727"/>
<path d="M99.0713 6.18628C99.0713 6.18628 84.5234 13.4146 74.9202 22.4333C65.317 31.4519 77.4837 23.5556 77.4837 23.5556C77.4837 23.5556 89.6503 11.9182 99.0713 6.18628Z" fill="#939393"/>
<path d="M75.1271 19.3591L63.1523 29.5867L71.7068 40.1462L83.6816 29.9186L75.1271 19.3591Z" fill="#D8D8D8"/>
<path d="M67.1537 26.1699L63.1621 29.5791L71.7166 40.1387L75.7082 36.7295L67.1537 26.1699Z" fill="#0A2C8C"/>
<path d="M74.9183 20.843L68.334 26.3878L69.8955 28.2584L76.2976 22.62L74.9183 20.843Z" fill="white"/>
<path d="M64.4043 29.8352L71.6783 39.2681L74.9704 36.5959L71.7433 38.5733L64.4043 29.8352Z" fill="white"/>
<path d="M61.7502 31.3582C61.7502 31.3582 54.4372 30.1424 52.0559 34.5515C49.6746 38.9606 56.0767 36.5289 61.7502 31.3582Z" fill="#B22A00"/>
<path d="M101.91 86.8114C100.663 85.7372 100.614 85.8331 99.3269 84.8221C92.6561 79.6153 87.2721 76.1399 85.657 75.1162L86.0246 74.5349L72.5648 66.7247L72.4466 66.9142C72.4466 66.9142 70.1223 56.4122 63.0969 55.6539C56.0847 54.8956 44.7858 59.0258 43.2625 56.435C41.7393 53.8442 45.5007 75.925 64.8697 77.6311C65.1455 77.6564 65.4212 77.6817 65.6839 77.6943L65.5919 77.846L70.0829 80.4494L79.0649 85.6562L79.3407 85.2138C80.1417 85.6056 80.5803 85.4592 83.3904 86.8114H101.91Z" fill="black" fill-opacity="0.2"/>
<path d="M175.77 143.111L175.676 140.916L0 142.372V143.226C0 145.56 2.4753 147.454 5.55776 147.454H170.235C173.341 147.454 175.863 145.491 175.77 143.111Z" fill="#183A9B"/>
<path d="M159.659 124.835H16.2784C12.9625 124.835 9.5998 125.921 8.75913 127.284L0.259034 140.916C-0.791802 142.602 1.44998 144.035 5.25634 144.035H170.681C174.488 144.035 176.729 142.602 175.679 140.916L167.202 127.284C166.338 125.921 162.975 124.835 159.659 124.835Z" fill="#638BFF"/>
<path d="M153.42 130.057H22.5096C19.4972 130.057 16.7417 130.565 16.4148 131.166L13.2623 136.965C12.8886 137.635 15.2005 138.189 18.423 138.189H157.53C160.73 138.189 163.065 137.635 162.691 136.965L159.539 131.166C159.188 130.565 156.433 130.057 153.42 130.057Z" fill="#001C6C"/>
<path d="M151.461 126.152H24.4971C21.5781 126.152 19.1028 126.291 19.0094 126.453L18.1687 127.954C18.0753 128.116 20.4338 128.255 23.4229 128.255H152.512C155.478 128.255 157.86 128.116 157.766 127.954L156.949 126.453C156.856 126.291 154.38 126.152 151.461 126.152Z" fill="#001C6C"/>
<path d="M120.219 138.882H55.7207C54.2262 138.882 52.9652 139.113 52.8952 139.368L52.2647 141.863C52.1946 142.14 53.3856 142.371 54.9034 142.371H121.013C122.531 142.371 123.722 142.14 123.651 141.863L123.021 139.368C122.974 139.09 121.713 138.882 120.219 138.882Z" fill="#3163F3"/>
</svg>
