<svg width="148" height="143" viewBox="0 0 148 143" fill="none" xmlns="http://www.w3.org/2000/svg">
<path d="M76.675 68.4967H115.12L127.487 80.8716C131.123 77.1869 133.37 72.1582 133.37 66.5965V20.4109C133.37 15.0346 131.262 10.1681 127.858 6.5298L112.781 21.616L76.6982 20.9671H45.3169L30.6105 6.25171C27.0439 9.91318 24.8438 14.9187 24.8438 20.4109V66.5965C24.8438 72.1119 27.0671 77.1174 30.6337 80.8021L42.9083 68.5199H76.675V68.4967Z" fill="#A4D8E6"/>
<path d="M76.675 68.4967H115.12L127.487 80.8716C131.123 77.1869 133.37 72.1582 133.37 66.5965V20.4109C133.37 15.0346 131.262 10.1681 127.858 6.5298L112.781 21.616L76.6982 20.9671H45.3169L30.6105 6.25171C27.0439 9.91318 24.8438 14.9187 24.8438 20.4109V66.5965C24.8438 72.1119 27.0671 77.1174 30.6337 80.8021L42.9083 68.5199H76.675V68.4967Z" fill="#2D58D6"/>
<path d="M117.344 0.55137C115.955 0.25011 114.496 0.0878906 113.013 0.0878906H76.6527H45.1556C39.4583 0.0878906 34.2937 2.45163 30.6113 6.25214L45.3177 20.9676H76.6759L112.759 21.6164L127.836 6.53023C125.08 3.56397 121.443 1.43198 117.344 0.55137Z" fill="#638BFF"/>
<path d="M45.1561 86.9205H113.014C118.665 86.9205 123.783 84.6032 127.466 80.8722L115.098 68.4973H76.6533H42.9328L30.6582 80.7795C34.3406 84.5568 39.482 86.9205 45.1561 86.9205Z" fill="#A4D8E6"/>
<path d="M79.0588 21.0142V68.4974H115.118L127.486 80.8723C131.122 77.1876 133.368 72.1589 133.368 66.5972V20.4117C133.368 15.0353 131.261 10.1688 127.856 6.53052L112.779 21.6167L79.0588 21.0142Z" fill="#5FB0CF"/>
<path d="M79.0588 21.0142V68.4974H115.118L127.486 80.8723C131.122 77.1876 133.368 72.1589 133.368 66.5972V20.4117C133.368 15.0353 131.261 10.1688 127.856 6.53052L112.779 21.6167L79.0588 21.0142Z" fill="#2D58D6"/>
<path d="M112.756 21.6164L127.833 6.53023C125.077 3.56397 121.441 1.43198 117.342 0.55137C115.952 0.25011 114.493 0.0878906 113.011 0.0878906H79.0588V21.0139L112.756 21.6164Z" fill="#183A9B"/>
<path d="M127.463 80.8722L115.095 68.4973H79.0588V86.9205H113.034C118.662 86.9205 123.78 84.6032 127.463 80.8722Z" fill="#5FB0CF"/>
<path d="M45.1581 86.9205H113.016C118.667 86.9205 123.785 84.6032 127.467 80.8722L115.1 68.4973H76.6552H42.9348L30.6602 80.7795C34.3425 84.5568 39.484 86.9205 45.1581 86.9205Z" fill="#E6F2F0"/>
<path d="M45.1581 86.9205H113.016C118.667 86.9205 123.785 84.6032 127.467 80.8722L115.1 68.4973H76.6552H42.9348L30.6602 80.7795C34.3425 84.5568 39.484 86.9205 45.1581 86.9205Z" fill="#638BFF"/>
<path d="M117.712 66.5966C117.712 69.1921 115.605 71.2777 113.034 71.2777H45.176C42.5821 71.2777 40.4746 69.1689 40.4746 66.5966V20.4111C40.4746 17.8156 42.5821 15.7068 45.176 15.7068H113.034C115.628 15.7068 117.712 17.8156 117.712 20.4111V66.5966Z" fill="#436ADA"/>
<path d="M113.036 15.7068H79.084V71.2777H113.013C115.607 71.2777 117.691 69.1689 117.691 66.5966V20.4111C117.714 17.8156 115.607 15.7068 113.036 15.7068Z" fill="#B9CBFF"/>
<path d="M46.8354 33.4642C47.5997 33.3252 48.4566 33.2093 49.3829 33.1166C50.3093 33.0239 51.2357 33.0007 52.1389 33.0007C53.0885 33.0007 54.0612 33.0703 55.0107 33.2325C55.9834 33.3947 56.8404 33.6959 57.6046 34.1594C58.3689 34.6229 58.9942 35.2718 59.4805 36.106C59.9669 36.9403 60.1985 38.0295 60.1985 39.3735C60.1985 40.5786 59.9901 41.6214 59.5732 42.4557C59.1563 43.2899 58.6005 43.9851 57.8825 44.5181C57.1877 45.0511 56.4003 45.4451 55.4971 45.6768C54.617 45.9086 53.6906 46.0244 52.7411 46.0244C52.6485 46.0244 52.5095 46.0244 52.3011 46.0244C52.0926 46.0244 51.8842 46.0244 51.6757 46.0013C51.4441 46.0013 51.2357 45.9781 51.0273 45.9549C50.8188 45.9318 50.6567 45.9086 50.5641 45.9086V52.5595H46.7891V33.4642H46.8354ZM52.44 36.2451C52.0695 36.2451 51.7221 36.2682 51.3978 36.2914C51.0736 36.3146 50.7957 36.3609 50.6104 36.3841V42.6411C50.6799 42.6642 50.7957 42.6874 50.9346 42.6874C51.0736 42.7106 51.2357 42.7106 51.3978 42.7338C51.5599 42.7338 51.7221 42.7569 51.8842 42.7569C52.0463 42.7569 52.1621 42.7569 52.2316 42.7569C52.7179 42.7569 53.2274 42.7106 53.7138 42.6179C54.2001 42.5252 54.6402 42.363 55.0107 42.1081C55.4045 41.8532 55.7055 41.5055 55.9371 41.0652C56.1687 40.6249 56.2845 40.0456 56.2845 39.3272C56.2845 38.7247 56.1687 38.2148 55.9603 37.8209C55.7518 37.4269 55.4508 37.1025 55.1034 36.8708C54.756 36.639 54.3391 36.4768 53.8759 36.3841C53.3896 36.2914 52.9264 36.2451 52.44 36.2451Z" fill="white"/>
<path d="M61.6543 42.8964C61.6543 39.6752 62.3722 37.2188 63.785 35.4807C65.1977 33.7427 67.2126 32.8853 69.8297 32.8853C71.1961 32.8853 72.4004 33.117 73.4426 33.6036C74.4616 34.0903 75.3185 34.7623 75.9901 35.6429C76.6617 36.5235 77.1713 37.5895 77.4955 38.8178C77.8197 40.046 77.9818 41.4132 77.9818 42.9195C77.9818 46.1407 77.2639 48.5971 75.8512 50.3352C74.4384 52.0732 72.4235 52.9306 69.8065 52.9306C68.4169 52.9306 67.2126 52.6989 66.1704 52.2123C65.1514 51.7256 64.2945 51.0536 63.6229 50.173C62.9512 49.2924 62.4649 48.2264 62.1175 46.9981C61.8164 45.7699 61.6543 44.4027 61.6543 42.8964ZM65.6146 42.8964C65.6146 43.8697 65.7072 44.7734 65.8694 45.5845C66.0315 46.3956 66.2862 47.0908 66.6336 47.6934C66.981 48.2727 67.3979 48.7362 67.9306 49.0606C68.4632 49.385 69.0885 49.5473 69.8297 49.5473C71.1729 49.5473 72.2151 49.0374 72.933 47.9714C73.6742 46.9286 74.0216 45.2369 74.0216 42.8732C74.0216 41.9462 73.9521 41.0656 73.7899 40.2545C73.6278 39.4435 73.3962 38.7251 73.0488 38.1225C72.7246 37.52 72.2846 37.0565 71.7519 36.7089C71.2192 36.3613 70.5708 36.1991 69.8065 36.1991C68.4632 36.1991 67.4211 36.7321 66.7031 37.7981C65.9852 38.9105 65.6146 40.6022 65.6146 42.8964Z" fill="white"/>
<path d="M90.2315 47.9657C90.2315 47.3863 90.0231 46.8996 89.583 46.5289C89.143 46.1581 88.6103 45.8336 87.9618 45.5324C87.3134 45.2311 86.5954 44.9299 85.8312 44.6054C85.0669 44.281 84.3721 43.887 83.7005 43.4236C83.052 42.9601 82.5193 42.3807 82.0793 41.6855C81.6393 40.9903 81.4308 40.0865 81.4308 39.0205C81.4308 38.0936 81.5929 37.2825 81.894 36.5873C82.1951 35.8921 82.6583 35.3359 83.2373 34.8724C83.8163 34.4089 84.4879 34.0845 85.2985 33.8528C86.1091 33.621 86.966 33.5283 87.9387 33.5283C89.0503 33.5283 90.1157 33.621 91.1116 33.8064C92.1074 33.9918 92.918 34.2931 93.5665 34.6407L92.3853 37.8155C91.9916 37.5606 91.3895 37.3288 90.5789 37.1203C89.7683 36.9117 88.8882 36.7958 87.9618 36.7958C87.0818 36.7958 86.4102 36.9581 85.947 37.3288C85.4838 37.6765 85.2522 38.1399 85.2522 38.7424C85.2522 39.2986 85.4606 39.7389 85.9006 40.1097C86.3407 40.4805 86.8733 40.8281 87.5218 41.1294C88.1703 41.4538 88.8882 41.7782 89.6293 42.1027C90.3936 42.4271 91.0884 42.8442 91.76 43.3077C92.4085 43.7712 92.9643 44.3505 93.3812 45.0457C93.8212 45.741 94.0297 46.5984 94.0297 47.618C94.0297 48.6377 93.8676 49.5415 93.5202 50.283C93.1728 51.0246 92.7096 51.6503 92.0843 52.1369C91.4821 52.6236 90.7178 52.9944 89.8609 53.2261C88.9809 53.4579 88.0313 53.5969 86.9891 53.5969C85.6227 53.5969 84.3953 53.4579 83.3531 53.2029C82.3109 52.948 81.5466 52.6931 81.0371 52.4382L82.2414 49.217C82.4498 49.3329 82.7046 49.4488 83.0288 49.5878C83.3531 49.7037 83.7005 49.8427 84.1173 49.9354C84.5111 50.0513 84.9511 50.144 85.3911 50.2135C85.8312 50.283 86.2943 50.3294 86.7807 50.3294C87.8924 50.3294 88.7493 50.144 89.3514 49.7732C89.9304 49.3097 90.2315 48.7304 90.2315 47.9657Z" fill="#3354B4"/>
<path d="M110.171 37.2123H104.543V53.1327H100.792V37.2123H95.1406V33.8521H110.171V37.2123Z" fill="#3354B4"/>
<path d="M31.2027 130.091C31.2027 130.091 31.2027 126.059 38.938 123.626C41.2632 122.901 42.9641 122.473 44.2059 122.229C45.6897 121.937 48.1697 120.38 48.9104 119.061C50.2619 116.656 52.693 113.264 56.6566 110.602C59.7368 108.516 60.64 105.226 57.9535 102.885C55.267 100.545 49.5234 105.527 41.5796 112.641C41.5796 112.641 40.2364 113.499 43.0619 108.4C45.8873 103.279 58.162 79.0392 58.162 79.0392C58.162 79.0392 61.7749 73.4311 57.3977 71.2296C53.4142 69.1903 52.1173 73.547 50.9593 75.8412C49.7782 78.1354 40.7691 95.7707 40.7691 95.7707C40.7691 95.7707 39.6574 96.2805 39.7037 95.2145L45.1231 84.5777C45.1231 84.5777 47.0453 81.1943 44.2199 79.7112C40.8849 77.95 39.6805 80.082 38.9394 81.5419C38.1983 83.0019 33.4969 92.2483 33.4969 92.2483C33.4969 92.2483 32.2695 93.0825 32.3158 91.6458L37.0867 82.2603C37.0867 82.2603 38.3836 79.9429 35.396 78.4135C32.4084 76.884 31.3199 79.2246 31.3199 79.2246L26.3869 88.9344C26.3869 88.9344 25.5995 89.5833 25.3911 88.4246L28.726 81.8664C28.726 81.8664 29.5829 79.7344 26.6648 78.3208C23.7236 76.9303 22.6119 79.2246 22.6119 79.2246L14.4351 104.368C14.4351 104.368 11.4707 109.652 13.3698 112.641C15.2689 115.631 11.4707 120.057 11.4707 120.057L31.2027 130.091Z" fill="white"/>
<path d="M11.2362 111.726L7.68555 117.621L32.3023 132.466L35.853 126.571L11.2362 111.726Z" fill="#B9CBFF"/>
<path d="M5.98946 115.617L0 125.561L28.8816 142.978L34.871 133.034L5.98946 115.617Z" fill="#183A9B"/>
<path d="M20.4102 124.349L14.4219 134.293L28.8627 143L34.851 133.056L20.4102 124.349Z" fill="#09277D"/>
<path d="M23.5571 119.143L20.0078 125.038L32.3077 132.452L35.857 126.556L23.5571 119.143Z" fill="#9CB5FF"/>
<path d="M69.0181 65.7395C68.7634 65.6236 68.5549 65.4151 68.3928 65.137C66.8411 62.333 63.784 60.7571 60.588 61.1743C59.7774 61.2669 59.0363 60.7108 58.9437 59.8997C58.851 59.0886 59.4069 58.347 60.2174 58.2543C64.6178 57.6982 68.8328 59.8302 70.9635 63.7234C71.3572 64.4418 71.1025 65.3224 70.3845 65.7163C69.9445 65.9713 69.435 65.9481 69.0181 65.7395Z" fill="#09277D"/>
<path d="M73.6777 63.0982C73.4229 62.9591 73.2145 62.7737 73.0524 62.4956C70.4585 57.7913 65.3402 55.1727 59.9903 55.8679C59.1798 55.9606 58.4386 55.4044 58.346 54.5934C58.2534 53.7823 58.8092 53.0407 59.6198 52.948C66.1508 52.1138 72.4271 55.3118 75.6231 61.082C76.0168 61.8004 75.7621 62.681 75.0441 63.075C74.6041 63.3299 74.0946 63.3067 73.6777 63.0982Z" fill="#09277D"/>
<path d="M78.3063 60.4558C78.0516 60.3168 77.8431 60.1314 77.681 59.8533C74.0449 53.2487 66.8654 49.5872 59.3849 50.5374C58.5743 50.6301 57.8332 50.0739 57.7405 49.2628C57.6479 48.4517 58.2037 47.7102 59.0143 47.6175C67.6992 46.5051 76.0367 50.7459 80.2517 58.4165C80.6454 59.1349 80.3907 60.0387 79.6727 60.4094C79.2327 60.6875 78.7232 60.6644 78.3063 60.4558Z" fill="#09277D"/>
<path d="M108.771 106.363C108.771 106.387 108.771 106.387 108.771 106.363L108.794 102.702C108.794 102.679 108.794 102.679 108.794 102.656L108.863 95.9351C108.863 95.9351 108.863 95.9351 108.863 95.9583L108.887 92.1346L108.933 85.6923C109.002 80.1074 117.664 75.6348 128.294 75.7275C138.948 75.8202 147.54 80.4318 147.494 86.0167L147.447 92.7603V92.7835L147.401 97.8817C147.401 97.8817 147.401 97.8817 147.401 97.9049L147.355 101.427C147.355 101.427 147.355 101.427 147.355 101.404L147.332 106.688L147.285 113.431C147.216 119.039 138.577 122.098 127.901 122.029C117.27 121.936 108.655 118.715 108.701 113.13L108.771 106.363Z" fill="#FFA31A"/>
<path d="M147.499 85.9935C147.452 91.6016 138.79 96.0741 128.137 95.9583C117.484 95.8887 108.891 91.2771 108.938 85.6691C109.007 80.0842 117.669 75.6116 128.299 75.7043C138.976 75.797 147.568 80.4086 147.499 85.9935Z" fill="#FFD35C"/>
<path d="M143.491 85.9702C143.468 90.4196 136.589 93.9421 128.159 93.8725C119.729 93.7799 112.92 90.1415 112.943 85.7153C112.99 81.266 119.868 77.7667 128.298 77.8362C136.728 77.8826 143.537 81.544 143.491 85.9702Z" fill="#FFA31A"/>
<path d="M138.85 85.9241C138.827 89.0062 134.033 91.4627 128.174 91.4163C122.314 91.37 117.567 88.844 117.59 85.7387C117.613 82.6566 122.407 80.2001 128.267 80.2465C134.149 80.316 138.874 82.842 138.85 85.9241Z" fill="#FFD35C"/>
<path d="M127.251 89.5155C126.626 89.4923 126.093 89.446 125.653 89.3765C125.213 89.3069 124.866 89.2142 124.611 89.1447L125.26 88.0556C125.445 88.1251 125.7 88.2178 126.047 88.2641C126.394 88.3336 126.765 88.3568 127.228 88.4032L127.251 86.1785C126.927 86.0858 126.58 85.9699 126.279 85.8309C125.977 85.6918 125.676 85.5528 125.422 85.4137C125.167 85.2283 124.958 85.0661 124.819 84.8112C124.634 84.5795 124.588 84.3246 124.588 84.0233C124.588 83.4903 124.843 83.0732 125.329 82.7719C125.815 82.4706 126.464 82.2621 127.298 82.1694V81.2424L129.127 81.2656V82.1694C129.567 82.1926 129.984 82.2389 130.308 82.2853C130.656 82.3316 131.003 82.4011 131.281 82.4707L130.633 83.5135C130.447 83.4671 130.239 83.4208 129.961 83.3744C129.706 83.3281 129.405 83.3049 129.081 83.2586L129.058 85.2747C129.405 85.3674 129.729 85.5064 130.054 85.6223C130.378 85.7382 130.679 85.8772 130.934 86.0858C131.188 86.248 131.397 86.4334 131.559 86.6419C131.744 86.8737 131.814 87.1054 131.814 87.4067C131.791 87.986 131.559 88.4495 131.049 88.7739C130.563 89.0984 129.868 89.3301 129.011 89.4228V90.3729H127.182L127.251 89.5155ZM128.108 83.2586C127.645 83.3049 127.321 83.3744 127.135 83.5135C126.973 83.6525 126.881 83.8379 126.881 83.9769C126.881 84.1855 126.996 84.3941 127.228 84.5331C127.46 84.6722 127.761 84.8112 128.085 84.9503L128.108 83.2586ZM128.293 88.4032C128.71 88.3568 129.011 88.2873 129.22 88.1019C129.428 87.9397 129.521 87.7543 129.521 87.5226C129.521 87.2908 129.428 87.1054 129.197 86.9432C128.965 86.8042 128.664 86.6419 128.317 86.5261L128.293 88.4032Z" fill="#FFA31A"/>
<path d="M127.97 116.676C117.317 116.583 108.725 111.972 108.771 106.364L108.701 113.107C108.655 118.692 117.27 121.913 127.901 122.006C138.554 122.099 147.216 119.04 147.285 113.408L147.332 106.688C147.285 112.296 138.624 116.769 127.97 116.676Z" fill="#FFA31A"/>
<path d="M128.019 111.346C117.366 111.253 108.774 106.642 108.82 101.057L108.774 106.363C108.727 111.972 117.32 116.56 127.973 116.676C138.626 116.769 147.288 112.296 147.334 106.688V108.102L147.381 101.381C147.334 106.989 138.673 111.439 128.019 111.346Z" fill="#E66409"/>
<path d="M128.064 106.224C117.434 106.132 108.818 101.52 108.888 95.9351L108.818 102.655V102.679L108.842 101.056C108.795 106.641 117.387 111.253 128.041 111.346C138.694 111.438 147.356 106.989 147.402 101.381L147.379 102.98L147.449 96.2363C147.356 101.868 138.717 106.317 128.064 106.224Z" fill="#FFA31A"/>
<path d="M128.09 101.08C117.436 101.01 108.867 96.3757 108.914 90.7908L108.867 95.9354C108.844 101.52 117.413 106.132 128.043 106.225C138.697 106.317 147.359 101.868 147.405 96.2366V97.8588C147.405 97.8588 147.405 97.8588 147.405 97.8356L147.451 91.092C147.428 96.7233 138.743 101.196 128.09 101.08Z" fill="#FF700A"/>
<path d="M128.133 95.9581C117.479 95.8886 108.887 91.277 108.933 85.6689L108.91 90.7904C108.864 96.3985 117.456 101.01 128.087 101.08C138.74 101.172 147.402 96.7229 147.448 91.0916V92.737V92.7138L147.494 85.9702C147.471 91.6015 138.786 96.074 128.133 95.9581Z" fill="#FFA31A"/>
<path d="M93.6716 95.0082C83.1803 94.8924 74.6576 99.5271 74.3565 105.344C74.3565 105.436 74.3102 105.529 74.3102 105.599L74.2639 111.045C74.2175 117 82.8098 121.913 93.4632 121.983C104.117 122.075 112.778 117.348 112.825 111.392L112.802 113.13V113.107L112.848 105.923C112.917 100.014 104.325 95.1009 93.6716 95.0082Z" fill="url(#paint0_linear_21_5760)"/>
<path d="M112.873 105.946C112.827 111.902 104.142 116.653 93.512 116.56C82.8817 116.467 74.2664 111.577 74.3127 105.599C74.359 99.6661 83.0439 94.8923 93.6742 95.0082C104.328 95.1009 112.92 100.014 112.873 105.946Z" fill="#FFD35C"/>
<path d="M108.86 105.923C108.814 110.651 101.959 114.382 93.5286 114.312C85.0985 114.219 78.2664 110.372 78.3127 105.645C78.3591 100.918 85.2143 97.1634 93.6676 97.2561C102.098 97.3256 108.907 101.219 108.86 105.923Z" fill="#FFA31A"/>
<path d="M104.231 105.9C104.208 109.191 99.4141 111.786 93.5547 111.74C87.6954 111.693 82.9476 109.005 82.9708 105.691C82.9939 102.424 87.788 99.8051 93.6474 99.8514C99.5068 99.921 104.255 102.609 104.231 105.9Z" fill="#FFD35C"/>
<path d="M92.607 109.677C92.0048 109.654 91.4722 109.608 91.0321 109.538C90.5921 109.469 90.2447 109.376 89.99 109.306L90.6384 108.125C90.8237 108.217 91.0785 108.31 91.4259 108.356C91.7733 108.403 92.167 108.472 92.607 108.495L92.6302 106.132C92.3059 106.016 91.9817 105.9 91.6574 105.761C91.3332 105.622 91.0553 105.46 90.8005 105.297C90.5458 105.112 90.3605 104.903 90.1984 104.672C90.0131 104.463 89.9668 104.185 89.9668 103.837C89.9668 103.281 90.1984 102.841 90.6847 102.516C91.1711 102.192 91.8427 101.983 92.6533 101.891V100.894L94.4829 100.917V101.868C94.923 101.891 95.3398 101.937 95.6641 101.983C96.0115 102.03 96.3357 102.099 96.6368 102.192L95.9883 103.304C95.803 103.235 95.5946 103.189 95.3167 103.142C95.0388 103.096 94.7608 103.049 94.4366 103.026L94.4135 105.181C94.7608 105.274 95.0851 105.413 95.4093 105.552C95.7104 105.668 96.0115 105.83 96.2894 106.016C96.5441 106.201 96.7526 106.41 96.9379 106.641C97.1 106.873 97.1926 107.128 97.1926 107.452C97.1926 108.055 96.9147 108.542 96.4283 108.889C95.942 109.237 95.2472 109.469 94.3903 109.584V110.604L92.5607 110.581V109.677H92.607ZM93.4639 103.049C93.0007 103.073 92.6765 103.165 92.5144 103.328C92.3291 103.467 92.2596 103.629 92.2596 103.814C92.2596 104.023 92.3754 104.231 92.607 104.394C92.8386 104.533 93.1165 104.695 93.4639 104.834V103.049ZM93.6492 108.518C94.0429 108.449 94.3671 108.379 94.5756 108.217C94.784 108.055 94.8766 107.846 94.8998 107.615C94.8998 107.36 94.8072 107.151 94.5524 107.012C94.3208 106.85 94.0429 106.688 93.6723 106.572L93.6492 108.518Z" fill="#FFA31A"/>
<path d="M93.5095 116.56C82.8792 116.467 74.2639 111.577 74.3102 105.598L74.2639 111.044C74.2175 117 82.8098 121.913 93.4632 121.982C104.117 122.075 112.778 117.348 112.825 111.392L112.802 113.13V113.107L112.848 105.923C112.825 111.925 104.14 116.675 93.5095 116.56Z" fill="#FFA31A"/>
<defs>
<linearGradient id="paint0_linear_21_5760" x1="74.2673" y1="108.514" x2="112.87" y2="108.514" gradientUnits="userSpaceOnUse">
<stop stop-color="#DD3F18"/>
<stop offset="0.4157" stop-color="#E74A1B"/>
<stop offset="1" stop-color="#FD6120"/>
</linearGradient>
</defs>
</svg>
